<?xml version="1.0" standalone="no"?><!DOCTYPE svg PUBLIC "-//W3C//DTD SVG 1.1//EN" "http://www.w3.org/Graphics/SVG/1.1/DTD/svg11.dtd"><svg t="1598927189353" class="icon" viewBox="0 0 1024 1024" version="1.1" xmlns="http://www.w3.org/2000/svg" p-id="2683" width="128" height="128" xmlns:xlink="http://www.w3.org/1999/xlink"><defs><style type="text/css"></style></defs><path d="M509.074286 48.786286L469.942857 9.728a26.477714 26.477714 0 0 0-39.131428 0L186.806857 251.392 87.844571 154.697143a26.477714 26.477714 0 0 0-39.131428 0l-39.131429 39.131428a26.477714 26.477714 0 0 0 0 39.131429L145.408 368.64c11.483429 11.556571 25.307429 16.091429 39.131429 16.091429a53.906286 53.906286 0 0 0 39.131428-16.091429L509.074286 87.917714c9.216-9.142857 9.216-27.574857 0-39.131428z m460.8 223.378285H609.28a54.125714 54.125714 0 0 1 0-108.251428h360.594286a54.125714 54.125714 0 1 1 0 108.251428z m0 343.698286H485.668571a54.125714 54.125714 0 1 1 0-108.251428h484.205715a54.125714 54.125714 0 1 1 0 108.251428z m-714.020572 24.502857H182.198857a36.352 36.352 0 0 1-36.790857-36.864V529.846857c0-20.699429 16.091429-36.790857 36.790857-36.790857h73.654857c20.772571 0 36.864 16.091429 36.864 36.790857v73.654857c2.267429 20.699429-16.091429 36.864-36.864 36.864z m0 329.142857H182.198857a36.352 36.352 0 0 1-36.790857-36.864v-73.654857c0-20.699429 16.091429-36.790857 36.790857-36.790857h73.654857c20.772571 0 36.864 16.091429 36.864 36.790857v73.654857c2.267429 20.699429-16.091429 36.864-36.864 36.864z m714.020572-24.502857H485.668571a54.125714 54.125714 0 1 1 0-108.251428h484.205715a54.125714 54.125714 0 1 1 0 108.251428z" fill="#5c70be" p-id="2684"></path></svg>