<?xml version="1.0" standalone="no"?><!DOCTYPE svg PUBLIC "-//W3C//DTD SVG 1.1//EN" "http://www.w3.org/Graphics/SVG/1.1/DTD/svg11.dtd"><svg t="1598927841467" class="icon" viewBox="0 0 1024 1024" version="1.1" xmlns="http://www.w3.org/2000/svg" p-id="5883" xmlns:xlink="http://www.w3.org/1999/xlink" width="256" height="256"><defs><style type="text/css"></style></defs><path d="M323.84 181.376c20.352-36.864 68.736-51.328 108.032-32.128l351.744 171.648c39.296 19.2 54.528 64.64 34.176 101.504L323.84 181.376zM535.808 179.456c9.472-17.28 27.648-26.112 40.576-19.84l115.2 56.192c12.8 6.272 15.616 25.344 6.016 42.624l-161.792-78.976zM258.304 415.232v389.504c0 43.392 37.504 78.592 83.584 78.592h320.64c46.208 0 83.584-35.2 83.584-78.592V415.232H258.304z m126.72 368.512c0 13.824-11.904 25.088-26.624 25.088s-26.624-11.264-26.624-25.088v-280.32c0-13.824 11.904-25.088 26.624-25.088s26.624 11.264 26.624 25.088v280.32z m144 0c0 13.824-11.904 25.088-26.624 25.088s-26.624-11.264-26.624-25.088v-280.32c0-13.824 11.904-25.088 26.624-25.088s26.624 11.264 26.624 25.088v280.32z m144.128 6.272c0 13.824-11.904 25.088-26.624 25.088s-26.624-11.264-26.624-25.088v-280.32c0-13.824 11.904-25.088 26.624-25.088s26.624 11.264 26.624 25.088v280.32zM202.24 428.032c4.224-59.52 36.608-125.568 117.76-87.296 2.304 1.024 3.2 4.608 1.92 7.808l-14.08 30.976c-4.736 10.368 2.56 20.352 11.648 15.872l93.568-45.44c2.816-1.28 4.608-5.12 3.712-8.192l-26.88-102.528c-2.688-9.984-14.72-9.216-19.328 1.152l-10.624 23.552c-2.944 6.528-9.344 9.6-14.464 7.424-98.048-42.496-160 58.112-146.432 155.008l3.2 1.664z" p-id="5884" fill="#707070"></path></svg>