<?xml version="1.0" standalone="no"?><!DOCTYPE svg PUBLIC "-//W3C//DTD SVG 1.1//EN" "http://www.w3.org/Graphics/SVG/1.1/DTD/svg11.dtd"><svg t="1598003096782" class="icon" viewBox="0 0 1024 1024" version="1.1" xmlns="http://www.w3.org/2000/svg" p-id="2902" width="20" height="20" xmlns:xlink="http://www.w3.org/1999/xlink"><defs><style type="text/css"></style></defs><path d="M591.53 511.204L1007.9 94.89a54.5 54.5 0 0 0 0-76.687l-2.275-2.275a54.5 54.5 0 0 0-76.686 0L512.512 432.81 96.256 15.929a54.5 54.5 0 0 0-76.686 0l-2.276 2.275a53.476 53.476 0 0 0 0 76.687l416.37 416.37L17.237 927.63a54.5 54.5 0 0 0 0 76.685l2.333 2.276c21.22 20.992 55.466 20.992 76.686 0l416.37-416.427 416.37 416.427c21.22 20.992 55.41 20.992 76.686 0l2.275-2.276a54.5 54.5 0 0 0 0-76.686L591.531 511.204z" p-id="2903"></path></svg>