<?xml version="1.0" standalone="no"?><!DOCTYPE svg PUBLIC "-//W3C//DTD SVG 1.1//EN" "http://www.w3.org/Graphics/SVG/1.1/DTD/svg11.dtd"><svg t="1597999253452" class="icon" viewBox="0 0 1024 1024" version="1.1" xmlns="http://www.w3.org/2000/svg" p-id="2899" width="20" height="20" xmlns:xlink="http://www.w3.org/1999/xlink"><defs><style type="text/css"></style></defs><path d="M512 1024C230.4 1024 0 793.6 0 512S230.4 0 512 0s512 230.4 512 512-230.4 512-512 512z m182.4-697.6l-252.8 278.4-118.4-99.2c-16-12.8-35.2-9.6-48 3.2-12.8 16-9.6 35.2 3.2 48l144 121.6c12.8 12.8 35.2 9.6 48-3.2l275.2-304c12.8-12.8 12.8-35.2-3.2-48-12.8-12.8-35.2-12.8-48 3.2z" p-id="2900" fill="#5c70be"></path></svg>